<?xml version="1.0" encoding="UTF-8"?>
<svg width="151px" height="66px" viewBox="0 0 151 66" version="1.1" xmlns="http://www.w3.org/2000/svg" xmlns:xlink="http://www.w3.org/1999/xlink">
    <title>Vagen</title>
    <g id="Specifikace" stroke="none" stroke-width="1" fill="none" fill-rule="evenodd">
        <g id="Dreams" transform="translate(-121.000000, -562.000000)">
            <g id="Vagen" transform="translate(121.455196, 562.000000)">
                <path d="M75.5250644,0 C86.7467106,0 97.3157589,5.23194616 104.120493,14.1298805 L105.006536,15.3115882 L105.557293,16.035574 L106.088965,16.7216076 L106.850692,17.6794978 L107.334654,18.270651 L107.799534,18.8238521 C107.951313,19.0019271 108.099911,19.1736768 108.245329,19.3391011 L108.67204,19.8163979 L109.079668,20.2557425 C109.676796,20.8862954 110.209517,21.3887598 110.67783,21.7631356 C111.336144,22.2894011 112.413189,22.7835408 113.784089,23.2541531 L114.545899,23.504065 L115.359666,23.7497693 L116.398761,24.0394739 L117.499156,24.3240502 L118.263167,24.5111693 L119.048963,24.6963851 L120.263721,24.9709691 L121.094419,25.1520848 L122.366291,25.4212237 L124.975979,25.9522383 L130.140058,26.9767859 L131.898317,27.3347972 L133.601877,27.694877 L134.832303,27.9670756 L135.625668,28.1498643 L136.394749,28.3339006 L137.137187,28.519347 L138.024175,28.7533852 L138.861244,28.9901973 C140.482393,29.4668069 141.776396,29.9619628 142.577469,30.48708 C146.080681,32.7834985 148.272231,39.5916799 149.130784,44.5375204 L149.244364,45.2307118 L149.294348,45.5665153 L149.386171,46.2588867 C149.52183,47.3798524 149.570572,48.3288296 149.532042,49 C149.323979,52.6243202 146.410217,56 142.559251,56 L134.511944,56.0008365 C134.533736,55.670039 134.544804,55.336312 134.544804,55 C134.544804,46.7157288 127.829075,40 119.544804,40 C111.260533,40 104.544804,46.7157288 104.544804,55 C104.544804,55.336312 104.555872,55.670039 104.577664,56.0008365 L41.5119443,56.0008365 C41.5337359,55.670039 41.5448039,55.336312 41.5448039,55 C41.5448039,46.7157288 34.8290752,40 26.5448039,40 C18.2605327,40 11.5448039,46.7157288 11.5448039,55 C11.5448039,55.336312 11.5558719,55.670039 11.5776635,56.0008365 L6.97279109,56 C3.12182491,56 2.27373675e-13,52.8659932 2.27373675e-13,49 L1.04271963,38.2196149 C1.6610716,31.8266479 5.40361492,26.1541825 11.0377213,23.0704781 L18.4919142,18.9905893 C19.5265961,18.4242789 20.5451697,17.8290223 21.5464305,17.2055234 L40.6819541,5.28957066 C46.2336545,1.83245076 52.6429344,0 59.1830456,0 L75.5250644,0 Z M143.987177,36.9913157 C142.997571,34.4133046 141.150392,32.7245306 139.861386,33.2193335 C138.572381,33.7141363 138.329669,36.2051443 139.319275,38.7831555 C140.308881,41.3611666 142.15606,43.0499406 143.445066,42.5551377 C144.734072,42.0603348 144.976783,39.5693269 143.987177,36.9913157 Z M72.1478352,4 L62.543666,4.00127858 L61.6310694,4.01148508 L60.7601159,4.03184154 L60.3398208,4.04580755 L59.5287252,4.08127829 L59.1375771,4.10276826 L58.7557971,4.12675145 L58.0196461,4.18216803 L57.5843075,4.22118726 C54.1543384,4.54827724 51.9797585,5.23339487 50.3140862,6.24485542 L50.1084738,6.3729854 L49.7848248,6.58841147 L49.4729284,6.81271877 L49.1713941,7.04584829 L48.8788318,7.28774102 L48.8069301,7.34957654 L48.4537695,7.66688205 L48.1775546,7.93042464 L47.9054457,8.2025239 L47.50194,8.62658747 L47.0998527,9.06957162 L46.5578326,9.68930495 L45.1043308,11.3811513 L44.7856309,11.7434793 L40.2822538,17.9204655 L40.162436,18.0656345 C39.441131,19.0056105 39.4335703,20.3234117 40.1656333,21.2746955 C40.904314,22.2345787 41.9993401,22.8437805 43.1897513,22.9738365 L43.4290281,22.9934211 L43.6703845,23 L97.9028241,23 L98.1601283,22.9802575 C102.022009,22.6357664 102.153228,20.3839839 101.386982,18.9769875 L101.3346,18.8844694 L101.225081,18.7113074 L101.107488,18.5497895 L100.527562,17.8442268 L99.9315793,17.1075514 L99.3617483,16.4245743 L98.7903888,15.7578702 L98.2166176,15.1076108 L97.9241127,14.7838279 L97.3360925,14.1492012 C91.3351341,7.78531742 84.5923991,4.11946674 72.7351227,4.00286903 L72.1478352,4 Z" id="Shape" fill="#58AEFF"></path>
                <circle id="Oval" fill="#1C1C1C" cx="26.5448039" cy="55" r="11"></circle>
                <circle id="Oval" fill="#1C1C1C" cx="119.544804" cy="55" r="11"></circle>
            </g>
        </g>
    </g>
</svg>